<svg xmlns="http://www.w3.org/2000/svg" width="1200" height="640" viewBox="0 0 1200 640"><title>Qu4rk / QuarkMade hero composition</title><image href="hero-sunset.webp" width="1200" height="640" preserveAspectRatio="xMidYMid slice"/><defs>
 <linearGradient id="shade" x2="0" y2="1"><stop stop-color="#0B0A12" stop-opacity=".42"/><stop offset=".5" stop-color="#2A1854" stop-opacity=".27"/><stop offset="1" stop-color="#0B0A12" stop-opacity=".94"/></linearGradient>
 <radialGradient id="bloom"><stop stop-color="#4442DB" stop-opacity=".24"/><stop offset="1" stop-color="#0B0A12" stop-opacity="0"/></radialGradient>
 <linearGradient id="gold"><stop stop-color="#D4AF37"/><stop offset=".5" stop-color="#F3E5AB"/><stop offset="1" stop-color="#D4AF37"/></linearGradient>
 </defs>
<rect width="1200" height="640" fill="url(#shade)"/>
<path d="M502.44 74.89 L502.44 77.32 L492.15 77.32 Q488.29 77.22 485.69 74.53 Q483.08 71.84 483.08 67.93 L483.08 67.93 Q483.08 63.99 485.78 61.3 Q488.48 58.61 492.39 58.61 Q496.31 58.61 498.98 61.3 Q501.66 63.99 501.66 67.93 L501.66 67.93 Q501.66 72.17 498.69 74.92 L498.69 74.92 Q498.96 74.89 499.5 74.89 L499.5 74.89 L502.44 74.89 M492.39 74.7 L492.39 74.7 Q495.07 74.7 496.94 72.73 Q498.82 70.76 498.82 67.93 L498.82 67.93 Q498.82 65.12 496.96 63.18 Q495.1 61.23 492.39 61.23 Q489.69 61.23 487.81 63.18 Q485.92 65.12 485.92 67.93 L485.92 67.93 Q485.92 70.79 487.79 72.75 Q489.67 74.7 492.39 74.7 M513 77.24 L513 77.24 Q509.24 77.24 507.39 75.12 Q505.54 73 505.54 69.14 L505.54 69.14 L505.54 58.91 L508.3 58.91 L508.3 69.06 Q508.3 74.65 513 74.65 Q517.69 74.65 517.69 69.06 L517.69 69.06 L517.69 58.91 L520.45 58.91 L520.45 69.14 Q520.45 73 518.59 75.12 Q516.72 77.24 513 77.24 M525.77 77 L522.99 77 L527.93 61.1 Q528.33 59.86 529.22 59.22 Q530.11 58.59 531.3 58.59 Q532.49 58.59 533.39 59.22 Q534.3 59.86 534.7 61.1 L534.7 61.1 L539.64 77 L536.84 77 L535.51 72.57 L527.09 72.6 L525.77 77 M530.3 61.91 L530.3 61.91 L527.85 70.09 L534.78 70.09 L532.36 61.91 Q532.09 61.07 531.33 61.07 L531.33 61.07 Q530.55 61.07 530.3 61.91 M546.07 70.41 L546.04 77 L543.34 77 L543.34 58.91 L549.63 58.91 Q552.66 58.91 554.56 60.31 Q556.47 61.72 556.47 64.39 L556.47 64.39 Q556.47 66.31 555.37 67.63 Q554.28 68.95 552.36 69.36 L552.36 69.36 Q553.36 69.84 554.04 70.8 Q554.71 71.76 555.66 73.68 L555.66 73.68 L557.3 77 L554.33 77 L552.82 73.95 Q551.88 72.09 550.97 71.25 Q550.07 70.41 548.31 70.41 L548.31 70.41 L546.07 70.41 M549.66 61.45 L549.66 61.45 L546.1 61.45 L546.07 67.95 L549.61 67.95 Q551.42 67.95 552.52 67.09 Q553.63 66.23 553.63 64.63 Q553.63 63.04 552.52 62.24 Q551.42 61.45 549.66 61.45 M564.13 69.25 L564.13 77 L561.38 77 L561.38 58.91 L564.13 58.91 L564.13 66.71 L566.75 66.71 Q567.02 65.82 567.83 64.85 L567.83 64.85 L572.88 58.91 L576.04 58.91 L570.37 65.66 Q569.26 67.06 569.26 67.93 L569.26 67.93 Q569.26 68.74 570.37 70.14 L570.37 70.14 L576.23 77 L572.83 77 L567.83 71.14 Q567.02 70.17 566.75 69.25 L566.75 69.25 L564.13 69.25" fill="#FFFFFF"/><path d="M600.53 61.91 L598.29 77.03 L595.49 77.03 L598.02 60.99 Q598.21 59.83 598.97 59.21 Q599.72 58.59 600.86 58.59 L600.86 58.59 Q603.07 58.59 603.67 60.64 L603.67 60.64 L607.15 73.25 Q607.23 73.57 607.39 73.57 Q607.55 73.57 607.66 73.25 L607.66 73.25 L611.12 60.69 Q611.39 59.67 612.16 59.14 Q612.93 58.61 613.95 58.61 L613.95 58.61 Q615.06 58.61 615.8 59.26 Q616.54 59.91 616.73 61.07 L616.73 61.07 L619.03 77 L616.25 77 L614.25 61.93 Q614.17 61.31 613.79 61.31 L613.79 61.31 Q613.44 61.31 613.3 61.85 L613.3 61.85 L609.58 74.81 Q609.12 76.43 607.39 76.43 L607.39 76.43 Q606.64 76.43 606.03 76.03 Q605.42 75.62 605.21 74.87 L605.21 74.87 L601.51 61.83 Q601.34 61.29 601.02 61.29 L601.02 61.29 Q600.62 61.29 600.53 61.91 L600.53 61.91 M624.27 77 L621.49 77 L626.43 61.1 Q626.83 59.86 627.72 59.22 Q628.61 58.59 629.8 58.59 Q630.99 58.59 631.89 59.22 Q632.8 59.86 633.2 61.1 L633.2 61.1 L638.14 77 L635.34 77 L634.01 72.57 L625.59 72.6 L624.27 77 M628.8 61.91 L628.8 61.91 L626.35 70.09 L633.28 70.09 L630.86 61.91 Q630.59 61.07 629.83 61.07 L629.83 61.07 Q629.05 61.07 628.8 61.91 M657.8 67.87 L657.8 67.87 Q657.8 72.03 655.03 74.52 Q652.27 77 647.97 77 L647.97 77 L641.84 77 L641.84 58.91 L648.11 58.91 Q652.45 58.91 655.13 61.38 Q657.8 63.85 657.8 67.87 M654.97 67.87 L654.97 67.87 Q654.97 65.01 653.06 63.23 Q651.16 61.45 648.11 61.45 L648.11 61.45 L644.6 61.45 L644.6 74.49 L647.97 74.49 Q651 74.49 652.98 72.69 Q654.97 70.9 654.97 67.87 M674.3 74.49 L674.3 77 L664.17 77 Q661.63 77 661.63 74.52 L661.63 74.52 L661.63 61.39 Q661.63 58.91 664.17 58.91 L664.17 58.91 L674.11 58.91 L674.11 61.42 L664.39 61.42 L664.39 66.69 L673.57 66.69 L673.57 69.2 L664.39 69.2 L664.39 74.49 L674.3 74.49" fill="#A594F9"/>
<text x="482" y="102" font-family="Arial, Helvetica, sans-serif" font-size="13" fill="#D7D3E5" >D I G I T A L   C R A F T</text>
<path d="M245 168Q600 121 955 168" fill="none" stroke="#FFFFFF" stroke-opacity=".2"/>
<path d="M476.98 326.27 L476.98 342.11 L409.92 342.11 Q384.75 341.41 367.77 323.9 Q350.78 306.38 350.78 280.86 L350.78 280.86 Q350.78 255.17 368.38 237.66 Q385.98 220.14 411.5 220.14 Q437.02 220.14 454.45 237.66 Q471.87 255.17 471.87 280.86 L471.87 280.86 Q471.87 308.5 452.51 326.45 L452.51 326.45 Q454.27 326.27 457.79 326.27 L457.79 326.27 L476.98 326.27 M411.5 325.04 L411.5 325.04 Q428.93 325.04 441.16 312.19 Q453.39 299.34 453.39 280.86 L453.39 280.86 Q453.39 262.56 441.25 249.89 Q429.1 237.22 411.5 237.22 Q393.9 237.22 381.58 249.89 Q369.26 262.56 369.26 280.86 L369.26 280.86 Q369.26 299.52 381.5 312.28 Q393.73 325.04 411.5 325.04 M536.29 325.22 L536.29 325.22 Q547.9 325.22 554.5 316.59 Q561.1 307.97 561.1 295.3 L561.1 295.3 L561.1 253.76 L578.53 253.76 L578.53 297.41 Q578.53 316.77 567.26 329.44 Q556 342.11 536.29 342.11 L536.29 342.11 Q516.75 342.11 505.58 329.35 Q494.4 316.59 494.4 297.23 L494.4 297.23 L494.4 253.76 L511.82 253.76 L511.82 295.47 Q511.82 307.97 518.34 316.59 Q524.85 325.22 536.29 325.22 M673.04 317.82 L673.04 340 L655.62 340 L655.62 317.82 L610.91 317.82 Q603.17 317.82 598.86 314.22 Q594.54 310.61 594.54 304.8 L594.54 304.8 Q594.54 298.46 599.12 292.3 L599.12 292.3 L643.47 230 Q647.17 224.9 650.86 222.43 Q654.56 219.97 660.19 219.97 Q665.82 219.97 669.43 223.58 Q673.04 227.18 673.04 233.17 L673.04 233.17 L673.04 302.51 L692.05 302.51 L692.05 317.82 L673.04 317.82 M613.38 302.51 L613.38 302.51 L655.62 302.51 L655.62 243.2 Q655.62 241.26 654.03 241.26 L654.03 241.26 Q653.15 241.26 651.04 243.9 L651.04 243.9 L611.97 299.7 Q611.26 300.58 611.26 301.46 L611.26 301.46 Q611.26 302.51 613.38 302.51 M724.61 289.31 L724.61 340 L707.18 340 L707.18 288.61 Q707.18 272.42 716.25 262.21 Q725.31 252 741.68 252 L741.68 252 Q750.66 252 757.17 255.17 L757.17 255.17 L757.17 272.42 Q750.83 268.72 743.26 268.72 L743.26 268.72 Q734.64 268.72 729.62 274.26 Q724.61 279.81 724.61 289.31 L724.61 289.31 M788.32 303.39 L788.32 340 L770.9 340 L770.9 213.98 L788.32 213.98 L788.32 289.66 L798.88 289.66 Q800.11 286.67 802.93 283.86 L802.93 283.86 L830.56 253.76 L851.86 253.76 L814.72 294.24 Q813.14 295.65 813.14 296.7 Q813.14 297.76 814.72 299.17 L814.72 299.17 L851.68 340 L830.21 340 L802.75 309.9 Q799.94 306.38 798.7 303.39 L798.7 303.39 L788.32 303.39" fill="#FFFFFF"/>
<path d="M283.63 416.59 L283.63 416.59 Q276.67 416.59 271.8 411.64 Q266.92 406.69 266.92 399.54 L266.92 399.54 Q266.92 392.43 271.8 387.51 Q276.67 382.58 283.63 382.58 L283.63 382.58 Q287.89 382.58 291.47 384.64 Q295.05 386.7 296.91 390.27 L296.91 390.27 L292.84 392.63 Q289.76 387.33 283.44 387.33 L283.44 387.33 Q278.63 387.33 275.35 390.86 Q272.07 394.39 272.07 399.54 L272.07 399.54 Q272.07 404.78 275.35 408.33 Q278.63 411.88 283.44 411.88 L283.44 411.88 Q286.57 411.88 289 410.49 Q291.42 409.09 292.84 406.59 L292.84 406.59 L296.91 408.94 Q295.05 412.52 291.47 414.55 Q287.89 416.59 283.63 416.59 M306.37 401.89 L306.37 416 L301.52 416 L301.52 401.69 Q301.52 397.18 304.04 394.34 Q306.56 391.5 311.12 391.5 L311.12 391.5 Q313.62 391.5 315.43 392.38 L315.43 392.38 L315.43 397.18 Q313.67 396.15 311.56 396.15 L311.56 396.15 Q309.16 396.15 307.76 397.7 Q306.37 399.24 306.37 401.89 L306.37 401.89 M329.54 416.59 L329.54 416.59 Q324.4 416.59 320.94 412.91 Q317.49 409.24 317.49 403.95 L317.49 403.95 Q317.49 398.75 321.17 395.08 Q324.84 391.4 330.28 391.4 Q335.72 391.4 339.39 395 Q343.07 398.61 343.07 403.95 L343.07 403.95 L343.07 416 L338.46 416 L338.46 411.79 Q337.09 414.04 334.76 415.31 Q332.44 416.59 329.54 416.59 M324.64 409.63 Q326.95 411.98 330.28 411.98 Q333.61 411.98 335.91 409.63 Q338.22 407.28 338.22 404 L338.22 404 Q338.22 400.66 335.91 398.31 Q333.61 395.96 330.28 395.96 Q326.95 395.96 324.64 398.31 Q322.34 400.66 322.34 404 L322.34 404 Q322.34 407.28 324.64 409.63 M357.43 396.2 L357.43 416 L352.57 416 L352.57 396.2 L348.02 396.2 L348.02 391.99 L352.57 391.99 L352.57 389.49 Q352.57 385.52 354.98 383.05 Q357.38 380.57 361.79 380.57 L361.79 380.57 Q364.29 380.57 366.15 381.45 L366.15 381.45 L366.15 386.06 Q364.38 384.98 362.23 384.98 L362.23 384.98 Q357.43 384.98 357.43 389.49 L357.43 389.49 L357.43 391.99 L365.85 391.99 L365.85 396.2 L357.43 396.2 M381.48 416.64 L381.48 416.64 Q377.07 416.64 374.7 414.11 Q372.32 411.59 372.32 407.38 L372.32 407.38 L372.32 396.2 L367.57 396.2 L367.57 391.99 L372.32 391.99 L372.32 385.77 L377.17 385.77 L377.17 391.99 L386.38 391.99 L386.38 396.2 L377.17 396.2 L377.17 407.23 Q377.17 409.58 378.45 410.9 Q379.72 412.23 381.93 412.23 L381.93 412.23 Q384.38 412.23 386.38 410.81 L386.38 410.81 L386.38 415.26 Q384.38 416.64 381.48 416.64 M398.22 386.31 Q397.31 387.24 395.99 387.24 Q394.67 387.24 393.73 386.31 Q392.8 385.38 392.8 384.05 Q392.8 382.73 393.73 381.77 Q394.67 380.82 395.99 380.82 Q397.31 380.82 398.22 381.77 Q399.12 382.73 399.12 384.05 Q399.12 385.38 398.22 386.31 M393.59 416 L393.59 391.99 L398.44 391.99 L398.44 416 L393.59 416 M418.23 396.06 L418.23 396.06 Q414.85 396.06 413.02 398.46 Q411.18 400.86 411.18 404.39 L411.18 404.39 L411.18 416 L406.33 416 L406.33 403.9 Q406.33 398.46 409.46 394.93 Q412.6 391.4 418.23 391.4 L418.23 391.4 Q423.92 391.4 427.13 394.91 Q430.34 398.41 430.34 403.85 L430.34 403.85 L430.34 416 L425.49 416 L425.49 404.44 Q425.49 400.86 423.58 398.46 Q421.66 396.06 418.23 396.06 M448.12 427.61 L448.12 427.61 Q444.2 427.61 441.12 425.92 Q438.03 424.23 436.41 421.1 L436.41 421.1 L440.48 418.89 Q442.83 423.15 448.03 423.15 L448.03 423.15 Q451.85 423.15 454.18 420.63 Q456.5 418.11 456.5 413.89 L456.5 413.89 L456.5 411.98 Q453.76 416.34 447.98 416.34 L447.98 416.34 Q442.83 416.34 439.3 412.77 Q435.78 409.19 435.78 403.9 L435.78 403.9 Q435.78 398.7 439.45 395.05 Q443.13 391.4 448.57 391.4 Q454 391.4 457.68 395 Q461.35 398.61 461.35 403.95 L461.35 403.95 L461.35 413.84 Q461.35 420.02 457.63 423.82 Q453.91 427.61 448.12 427.61 M448.52 411.79 L448.52 411.79 Q451.85 411.79 454.15 409.48 Q456.45 407.18 456.45 403.85 L456.45 403.85 Q456.45 400.56 454.15 398.29 Q451.85 396.01 448.52 396.01 L448.52 396.01 Q445.23 396.01 442.91 398.29 Q440.58 400.56 440.58 403.85 Q440.58 407.13 442.91 409.46 Q445.23 411.79 448.52 411.79 M502.66 412.99 Q498.99 416.59 493.55 416.59 Q488.11 416.59 484.43 412.94 Q480.76 409.29 480.76 404.04 L480.76 404.04 Q480.76 398.56 484.31 394.98 Q487.86 391.4 493.3 391.4 L493.3 391.4 Q498.2 391.4 501.44 394.98 L501.44 394.98 L501.49 380.96 L506.34 380.96 L506.34 404.04 Q506.34 409.38 502.66 412.99 M487.91 409.68 Q490.22 412.03 493.55 412.03 Q496.88 412.03 499.18 409.68 Q501.49 407.33 501.49 404 L501.49 404 Q501.49 400.71 499.18 398.36 Q496.88 396.01 493.55 396.01 Q490.22 396.01 487.91 398.36 Q485.61 400.71 485.61 404 L485.61 404 Q485.61 407.33 487.91 409.68 M518.91 386.31 Q518 387.24 516.68 387.24 Q515.35 387.24 514.42 386.31 Q513.49 385.38 513.49 384.05 Q513.49 382.73 514.42 381.77 Q515.35 380.82 516.68 380.82 Q518 380.82 518.91 381.77 Q519.81 382.73 519.81 384.05 Q519.81 385.38 518.91 386.31 M514.27 416 L514.27 391.99 L519.13 391.99 L519.13 416 L514.27 416 M537.84 427.61 L537.84 427.61 Q533.92 427.61 530.84 425.92 Q527.75 424.23 526.13 421.1 L526.13 421.1 L530.2 418.89 Q532.55 423.15 537.75 423.15 L537.75 423.15 Q541.57 423.15 543.9 420.63 Q546.22 418.11 546.22 413.89 L546.22 413.89 L546.22 411.98 Q543.48 416.34 537.7 416.34 L537.7 416.34 Q532.55 416.34 529.02 412.77 Q525.5 409.19 525.5 403.9 L525.5 403.9 Q525.5 398.7 529.17 395.05 Q532.85 391.4 538.28 391.4 Q543.72 391.4 547.4 395 Q551.07 398.61 551.07 403.95 L551.07 403.95 L551.07 413.84 Q551.07 420.02 547.35 423.82 Q543.63 427.61 537.84 427.61 M538.24 411.79 L538.24 411.79 Q541.57 411.79 543.87 409.48 Q546.17 407.18 546.17 403.85 L546.17 403.85 Q546.17 400.56 543.87 398.29 Q541.57 396.01 538.24 396.01 L538.24 396.01 Q534.95 396.01 532.63 398.29 Q530.3 400.56 530.3 403.85 Q530.3 407.13 532.63 409.46 Q534.95 411.79 538.24 411.79 M563.64 386.31 Q562.74 387.24 561.41 387.24 Q560.09 387.24 559.16 386.31 Q558.23 385.38 558.23 384.05 Q558.23 382.73 559.16 381.77 Q560.09 380.82 561.41 380.82 Q562.74 380.82 563.64 381.77 Q564.55 382.73 564.55 384.05 Q564.55 385.38 563.64 386.31 M559.01 416 L559.01 391.99 L563.86 391.99 L563.86 416 L559.01 416 M582.68 416.64 L582.68 416.64 Q578.27 416.64 575.89 414.11 Q573.52 411.59 573.52 407.38 L573.52 407.38 L573.52 396.2 L568.76 396.2 L568.76 391.99 L573.52 391.99 L573.52 385.77 L578.37 385.77 L578.37 391.99 L587.58 391.99 L587.58 396.2 L578.37 396.2 L578.37 407.23 Q578.37 409.58 579.64 410.9 Q580.91 412.23 583.12 412.23 L583.12 412.23 Q585.57 412.23 587.58 410.81 L587.58 410.81 L587.58 415.26 Q585.57 416.64 582.68 416.64 M603.85 416.59 L603.85 416.59 Q598.7 416.59 595.25 412.91 Q591.79 409.24 591.79 403.95 L591.79 403.95 Q591.79 398.75 595.47 395.08 Q599.14 391.4 604.58 391.4 Q610.02 391.4 613.7 395 Q617.37 398.61 617.37 403.95 L617.37 403.95 L617.37 416 L612.76 416 L612.76 411.79 Q611.39 414.04 609.07 415.31 Q606.74 416.59 603.85 416.59 M598.95 409.63 Q601.25 411.98 604.58 411.98 Q607.91 411.98 610.22 409.63 Q612.52 407.28 612.52 404 L612.52 404 Q612.52 400.66 610.22 398.31 Q607.91 395.96 604.58 395.96 Q601.25 395.96 598.95 398.31 Q596.64 400.66 596.64 404 L596.64 404 Q596.64 407.28 598.95 409.63 M625.31 416 L625.31 380.96 L630.16 380.96 L630.16 416 L625.31 416 M663.23 416.54 L663.23 416.54 Q657.75 416.54 654.12 412.96 Q650.49 409.38 650.49 403.85 L650.49 403.85 Q650.49 398.56 653.92 394.93 Q657.35 391.3 662.65 391.3 L662.65 391.3 Q667.99 391.3 671.2 394.71 Q674.41 398.12 674.41 403.26 L674.41 403.26 L674.41 405.22 L655.2 405.22 Q655.59 408.36 657.8 410.29 Q660 412.23 663.19 412.23 L663.19 412.23 Q668.09 412.23 670.19 408.31 L670.19 408.31 L673.92 410.22 Q672.35 413.31 669.58 414.92 Q666.81 416.54 663.23 416.54 M655.39 402.08 L655.39 402.08 L669.56 402.08 Q669.41 399.19 667.5 397.43 Q665.59 395.67 662.6 395.67 L662.6 395.67 Q659.66 395.67 657.72 397.48 Q655.79 399.29 655.39 402.08 M689.45 408.75 L684.55 416 L679.06 416 L685.14 406.89 Q686.22 405.32 686.22 404 L686.22 404 Q686.22 402.77 685.24 401.3 L685.24 401.3 L679.06 391.99 L684.55 391.99 L689.45 399.29 Q690.23 400.47 690.53 401.69 L690.53 401.69 L693.12 401.69 Q693.52 400.27 694.2 399.29 L694.2 399.29 L699.05 391.99 L704.59 391.99 L698.42 401.3 Q697.44 402.77 697.44 404 L697.44 404 Q697.44 405.32 698.51 406.89 L698.51 406.89 L704.59 416 L699.1 416 L694.2 408.75 Q693.37 407.47 693.03 406.1 L693.03 406.1 L690.63 406.1 Q690.23 407.47 689.45 408.75 L689.45 408.75 M715.76 413.01 L715.76 427.02 L710.91 427.02 L710.91 403.95 Q710.91 398.61 714.59 395 Q718.26 391.4 723.7 391.4 L723.7 391.4 Q729.09 391.4 732.77 395.08 Q736.44 398.75 736.44 403.95 L736.44 403.95 Q736.44 409.38 732.89 412.99 Q729.34 416.59 723.9 416.59 L723.9 416.59 Q719 416.59 715.76 413.01 L715.76 413.01 M718.07 409.65 Q720.37 412.03 723.7 412.03 Q727.03 412.03 729.31 409.65 Q731.59 407.28 731.59 404 L731.59 404 Q731.59 400.66 729.31 398.34 Q727.03 396.01 723.7 396.01 L723.7 396.01 Q720.32 396.01 718.04 398.34 Q715.76 400.66 715.76 404 L715.76 404 Q715.76 407.28 718.07 409.65 M753.15 416.54 L753.15 416.54 Q747.66 416.54 744.04 412.96 Q740.41 409.38 740.41 403.85 L740.41 403.85 Q740.41 398.56 743.84 394.93 Q747.27 391.3 752.56 391.3 L752.56 391.3 Q757.9 391.3 761.11 394.71 Q764.32 398.12 764.32 403.26 L764.32 403.26 L764.32 405.22 L745.11 405.22 Q745.51 408.36 747.71 410.29 Q749.92 412.23 753.1 412.23 L753.1 412.23 Q758 412.23 760.11 408.31 L760.11 408.31 L763.83 410.22 Q762.26 413.31 759.5 414.92 Q756.73 416.54 753.15 416.54 M745.31 402.08 L745.31 402.08 L759.47 402.08 Q759.32 399.19 757.41 397.43 Q755.5 395.67 752.51 395.67 L752.51 395.67 Q749.57 395.67 747.64 397.48 Q745.7 399.29 745.31 402.08 M774.95 401.89 L774.95 416 L770.1 416 L770.1 401.69 Q770.1 397.18 772.63 394.34 Q775.15 391.5 779.71 391.5 L779.71 391.5 Q782.21 391.5 784.02 392.38 L784.02 392.38 L784.02 397.18 Q782.26 396.15 780.15 396.15 L780.15 396.15 Q777.75 396.15 776.35 397.7 Q774.95 399.24 774.95 401.89 L774.95 401.89 M792.47 386.31 Q791.57 387.24 790.24 387.24 Q788.92 387.24 787.99 386.31 Q787.06 385.38 787.06 384.05 Q787.06 382.73 787.99 381.77 Q788.92 380.82 790.24 380.82 Q791.57 380.82 792.47 381.77 Q793.38 382.73 793.38 384.05 Q793.38 385.38 792.47 386.31 M787.84 416 L787.84 391.99 L792.69 391.99 L792.69 416 L787.84 416 M811.8 416.54 L811.8 416.54 Q806.31 416.54 802.69 412.96 Q799.06 409.38 799.06 403.85 L799.06 403.85 Q799.06 398.56 802.49 394.93 Q805.92 391.3 811.21 391.3 L811.21 391.3 Q816.56 391.3 819.77 394.71 Q822.97 398.12 822.97 403.26 L822.97 403.26 L822.97 405.22 L803.77 405.22 Q804.16 408.36 806.36 410.29 Q808.57 412.23 811.75 412.23 L811.75 412.23 Q816.65 412.23 818.76 408.31 L818.76 408.31 L822.48 410.22 Q820.92 413.31 818.15 414.92 Q815.38 416.54 811.8 416.54 M803.96 402.08 L803.96 402.08 L818.12 402.08 Q817.98 399.19 816.07 397.43 Q814.15 395.67 811.17 395.67 L811.17 395.67 Q808.23 395.67 806.29 397.48 Q804.35 399.29 803.96 402.08 M840.66 396.06 L840.66 396.06 Q837.28 396.06 835.45 398.46 Q833.61 400.86 833.61 404.39 L833.61 404.39 L833.61 416 L828.76 416 L828.76 403.9 Q828.76 398.46 831.89 394.93 Q835.03 391.4 840.66 391.4 L840.66 391.4 Q846.35 391.4 849.56 394.91 Q852.77 398.41 852.77 403.85 L852.77 403.85 L852.77 416 L847.92 416 L847.92 404.44 Q847.92 400.86 846 398.46 Q844.09 396.06 840.66 396.06 M870.75 416.54 L870.75 416.54 Q865.6 416.59 861.91 412.89 Q858.21 409.19 858.21 403.95 L858.21 403.95 Q858.21 398.75 861.88 395.05 Q865.56 391.35 870.75 391.4 L870.75 391.4 Q874.18 391.4 877 392.99 Q879.81 394.59 881.43 397.72 L881.43 397.72 L877.41 399.98 Q875.26 396.01 870.75 396.01 L870.75 396.01 Q867.56 396.01 865.31 398.34 Q863.06 400.66 863.06 403.95 Q863.06 407.23 865.31 409.61 Q867.56 411.98 870.75 411.98 L870.75 411.98 Q875.26 411.98 877.41 408.01 L877.41 408.01 L881.43 410.22 Q879.81 413.35 877 414.95 Q874.18 416.54 870.75 416.54 M897.6 416.54 L897.6 416.54 Q892.11 416.54 888.49 412.96 Q884.86 409.38 884.86 403.85 L884.86 403.85 Q884.86 398.56 888.29 394.93 Q891.72 391.3 897.01 391.3 L897.01 391.3 Q902.35 391.3 905.56 394.71 Q908.77 398.12 908.77 403.26 L908.77 403.26 L908.77 405.22 L889.57 405.22 Q889.96 408.36 892.16 410.29 Q894.37 412.23 897.55 412.23 L897.55 412.23 Q902.45 412.23 904.56 408.31 L904.56 408.31 L908.28 410.22 Q906.72 413.31 903.95 414.92 Q901.18 416.54 897.6 416.54 M889.76 402.08 L889.76 402.08 L903.92 402.08 Q903.78 399.19 901.86 397.43 Q899.95 395.67 896.96 395.67 L896.96 395.67 Q894.02 395.67 892.09 397.48 Q890.15 399.29 889.76 402.08 M923.18 416.54 L923.18 416.54 Q916.22 416.54 913.43 411.2 L913.43 411.2 L917.15 409.14 Q918.82 412.42 922.98 412.42 L922.98 412.42 Q925.14 412.42 926.49 411.57 Q927.83 410.71 927.83 409.19 L927.83 409.19 Q927.83 407.82 926.41 407.08 Q924.99 406.35 922.98 405.95 Q920.97 405.56 918.94 405 Q916.91 404.44 915.49 402.89 Q914.07 401.35 914.07 398.8 L914.07 398.8 Q914.07 395.62 916.59 393.56 Q919.11 391.5 923.03 391.5 L923.03 391.5 Q929.4 391.5 932.05 396.35 L932.05 396.35 L928.32 398.46 Q926.95 395.62 923.13 395.62 L923.13 395.62 Q921.37 395.62 920.14 396.47 Q918.92 397.33 918.92 398.7 L918.92 398.7 Q918.92 400.03 920.34 400.76 Q921.76 401.5 923.77 401.89 Q925.78 402.28 927.81 402.89 Q929.84 403.5 931.26 405.05 Q932.69 406.59 932.69 409.09 L932.69 409.09 Q932.69 412.42 929.92 414.48 Q927.15 416.54 923.18 416.54" fill="#F3E5AB"/>
<path d="M345.2 456.13 L345.2 477 L341.87 477 L341.87 456.13 L337.12 456.13 L337.12 453.28 L341.87 453.28 L341.87 445.79 L345.2 445.79 L345.2 453.28 L349.95 453.28 L349.95 456.13 L345.2 456.13 M357.74 464.06 L357.74 476.95 L354.36 476.95 L354.36 441.28 L357.74 441.28 L357.74 457.4 Q360.29 452.65 366.12 452.65 L366.12 452.65 Q370.68 452.65 372.91 455.24 Q375.14 457.84 375.14 462.5 L375.14 462.5 L375.14 477 L371.76 477 L371.76 463.23 Q371.76 455.73 365.49 455.73 L365.49 455.73 Q361.81 455.73 359.78 458.11 Q357.74 460.49 357.74 464.06 L357.74 464.06 M388.71 477.59 L388.71 477.59 Q384.99 477.59 382.83 475.68 Q380.68 473.77 380.68 470.58 L380.68 470.58 Q380.68 467.35 383.03 465.36 Q385.38 463.38 389.55 463.04 L389.55 463.04 L397.39 462.4 L397.39 461.61 Q397.39 455.49 391.11 455.49 L391.11 455.49 Q388.03 455.49 386.29 456.81 Q384.55 458.13 384.55 460.54 L384.55 460.54 L381.46 460.54 Q381.46 456.96 384.13 454.8 Q386.8 452.65 391.21 452.65 L391.21 452.65 Q395.52 452.65 398.12 454.9 Q400.72 457.15 400.72 461.66 L400.72 461.66 L400.72 477 L397.88 477 L397.43 472.83 Q396.31 475.09 394 476.34 Q391.7 477.59 388.71 477.59 M389.5 474.84 L389.5 474.84 Q393.17 474.84 395.28 472.49 Q397.39 470.14 397.39 466.22 L397.39 466.22 L397.39 464.95 L390.38 465.49 Q384.11 466.02 384.11 470.48 L384.11 470.48 Q384.11 472.59 385.55 473.72 Q387 474.84 389.5 474.84 M412.48 456.13 L412.48 477 L409.15 477 L409.15 456.13 L404.39 456.13 L404.39 453.28 L409.15 453.28 L409.15 445.79 L412.48 445.79 L412.48 453.28 L417.23 453.28 L417.23 456.13 L412.48 456.13 M436.66 474.18 Q433.55 470.78 433.55 465.19 Q433.55 459.61 436.71 456.13 Q439.87 452.65 445.01 452.65 L445.01 452.65 Q449.13 452.65 451.95 454.85 Q454.76 457.06 455.45 460.73 L455.45 460.73 L452.07 460.73 Q451.43 458.33 449.52 456.98 Q447.61 455.64 445.06 455.64 L445.06 455.64 Q441.44 455.64 439.16 458.23 Q436.88 460.83 436.88 465.14 L436.88 465.14 Q436.88 469.36 439.06 471.95 Q441.24 474.55 444.82 474.55 L444.82 474.55 Q447.46 474.55 449.45 473.2 Q451.43 471.86 452.12 469.55 L452.12 469.55 L455.55 469.55 Q454.72 473.18 451.77 475.38 Q448.83 477.59 444.82 477.59 L444.82 477.59 Q439.77 477.59 436.66 474.18 M459.03 465.14 L459.03 465.14 Q459.03 459.7 462.43 456.18 Q465.84 452.65 471.08 452.65 Q476.32 452.65 479.73 456.18 Q483.14 459.7 483.14 465.14 L483.14 465.14 Q483.14 470.53 479.73 474.06 Q476.32 477.59 471.08 477.59 Q465.84 477.59 462.43 474.06 Q459.03 470.53 459.03 465.14 M462.46 465.09 L462.46 465.09 Q462.46 469.31 464.86 471.93 Q467.26 474.55 471.08 474.55 L471.08 474.55 Q474.85 474.55 477.28 471.9 Q479.71 469.26 479.71 465.09 L479.71 465.09 Q479.71 460.98 477.28 458.33 Q474.85 455.69 471.08 455.69 L471.08 455.69 Q467.26 455.69 464.86 458.33 Q462.46 460.98 462.46 465.09 M491.91 462.3 L491.91 477 L488.53 477 L488.53 453.28 L491.47 453.28 L491.86 456.67 Q492.74 454.8 494.63 453.73 Q496.51 452.65 499.01 452.65 L499.01 452.65 Q501.75 452.65 503.79 453.99 Q505.82 455.34 506.66 457.69 L506.66 457.69 Q507.49 455.34 509.55 453.99 Q511.6 452.65 514.45 452.65 L514.45 452.65 Q518.32 452.65 520.64 455.02 Q522.97 457.4 522.97 461.47 L522.97 461.47 L522.97 477 L519.69 477 L519.69 462.15 Q519.69 459.12 518.12 457.4 Q516.55 455.69 513.81 455.69 L513.81 455.69 Q510.92 455.69 509.2 457.6 Q507.49 459.51 507.49 462.35 L507.49 462.35 L507.49 477 L504.16 477 L504.16 462.1 Q504.16 459.12 502.56 457.42 Q500.97 455.73 498.28 455.73 L498.28 455.73 Q495.38 455.73 493.65 457.62 Q491.91 459.51 491.91 462.3 L491.91 462.3 M533.16 462.3 L533.16 477 L529.78 477 L529.78 453.28 L532.72 453.28 L533.12 456.67 Q534 454.8 535.88 453.73 Q537.77 452.65 540.27 452.65 L540.27 452.65 Q543.01 452.65 545.05 453.99 Q547.08 455.34 547.91 457.69 L547.91 457.69 Q548.75 455.34 550.8 453.99 Q552.86 452.65 555.7 452.65 L555.7 452.65 Q559.58 452.65 561.9 455.02 Q564.23 457.4 564.23 461.47 L564.23 461.47 L564.23 477 L560.95 477 L560.95 462.15 Q560.95 459.12 559.38 457.4 Q557.81 455.69 555.07 455.69 L555.07 455.69 Q552.18 455.69 550.46 457.6 Q548.75 459.51 548.75 462.35 L548.75 462.35 L548.75 477 L545.41 477 L545.41 462.1 Q545.41 459.12 543.82 457.42 Q542.23 455.73 539.53 455.73 L539.53 455.73 Q536.64 455.73 534.9 457.62 Q533.16 459.51 533.16 462.3 L533.16 462.3 M577.85 477.59 L577.85 477.59 Q574.13 477.59 571.97 475.68 Q569.82 473.77 569.82 470.58 L569.82 470.58 Q569.82 467.35 572.17 465.36 Q574.52 463.38 578.69 463.04 L578.69 463.04 L586.53 462.4 L586.53 461.61 Q586.53 455.49 580.25 455.49 L580.25 455.49 Q577.17 455.49 575.43 456.81 Q573.69 458.13 573.69 460.54 L573.69 460.54 L570.6 460.54 Q570.6 456.96 573.27 454.8 Q575.94 452.65 580.35 452.65 L580.35 452.65 Q584.66 452.65 587.26 454.9 Q589.86 457.15 589.86 461.66 L589.86 461.66 L589.86 477 L587.01 477 L586.57 472.83 Q585.45 475.09 583.14 476.34 Q580.84 477.59 577.85 477.59 M578.64 474.84 L578.64 474.84 Q582.31 474.84 584.42 472.49 Q586.53 470.14 586.53 466.22 L586.53 466.22 L586.53 464.95 L579.52 465.49 Q573.25 466.02 573.25 470.48 L573.25 470.48 Q573.25 472.59 574.69 473.72 Q576.14 474.84 578.64 474.84 M600 464.6 L600 477 L596.62 477 L596.62 453.28 L599.56 453.28 L600.05 457.4 Q601.23 455.15 603.41 453.9 Q605.59 452.65 608.18 452.65 L608.18 452.65 Q617.39 452.65 617.39 462.5 L617.39 462.5 L617.39 477 L614.01 477 L614.01 463.23 Q614.01 455.73 607.6 455.73 L607.6 455.73 Q604.02 455.73 602.01 458.13 Q600 460.54 600 464.6 L600 464.6 M633.47 477.59 L633.47 477.59 Q628.37 477.59 625.43 474.11 Q622.49 470.63 622.49 465.19 L622.49 465.19 Q622.49 459.65 625.48 456.15 Q628.47 452.65 633.61 452.65 L633.61 452.65 Q639.84 452.65 642.34 457.79 L642.34 457.79 L642.34 441.28 L645.72 441.28 L645.72 477 L642.78 477 L642.43 472.15 Q641.21 474.84 638.86 476.22 Q636.5 477.59 633.47 477.59 M634.06 474.5 L634.06 474.5 Q637.88 474.5 640.08 471.9 Q642.29 469.31 642.29 465.09 L642.29 465.09 Q642.29 460.93 640.08 458.31 Q637.88 455.69 634.06 455.69 L634.06 455.69 Q630.28 455.69 628.1 458.31 Q625.92 460.93 625.92 465.09 L625.92 465.09 Q625.92 469.31 628.1 471.9 Q630.28 474.5 634.06 474.5 M673.16 477.59 L673.16 477.59 Q669.43 477.59 667.28 475.68 Q665.12 473.77 665.12 470.58 L665.12 470.58 Q665.12 467.35 667.47 465.36 Q669.82 463.38 673.99 463.04 L673.99 463.04 L681.83 462.4 L681.83 461.61 Q681.83 455.49 675.56 455.49 L675.56 455.49 Q672.47 455.49 670.73 456.81 Q668.99 458.13 668.99 460.54 L668.99 460.54 L665.9 460.54 Q665.9 456.96 668.58 454.8 Q671.25 452.65 675.66 452.65 L675.66 452.65 Q679.97 452.65 682.56 454.9 Q685.16 457.15 685.16 461.66 L685.16 461.66 L685.16 477 L682.32 477 L681.88 472.83 Q680.75 475.09 678.45 476.34 Q676.15 477.59 673.16 477.59 M673.94 474.84 L673.94 474.84 Q677.62 474.84 679.72 472.49 Q681.83 470.14 681.83 466.22 L681.83 466.22 L681.83 464.95 L674.82 465.49 Q668.55 466.02 668.55 470.48 L668.55 470.48 Q668.55 472.59 670 473.72 Q671.44 474.84 673.94 474.84 M696.92 456.13 L696.92 477 L693.59 477 L693.59 456.13 L688.84 456.13 L688.84 453.28 L693.59 453.28 L693.59 445.79 L696.92 445.79 L696.92 453.28 L701.67 453.28 L701.67 456.13 L696.92 456.13 M711.72 456.13 L711.72 477 L708.39 477 L708.39 456.13 L703.63 456.13 L703.63 453.28 L708.39 453.28 L708.39 445.79 L711.72 445.79 L711.72 453.28 L716.47 453.28 L716.47 456.13 L711.72 456.13 M730.58 477.59 L730.58 477.59 Q725.39 477.59 722.18 474.16 Q718.97 470.73 718.97 465.14 L718.97 465.14 Q718.97 459.61 722.13 456.13 Q725.29 452.65 730.34 452.65 L730.34 452.65 Q735.14 452.65 738.13 455.76 Q741.12 458.87 741.12 463.92 L741.12 463.92 L741.12 465.58 L722.25 465.58 Q722.45 469.94 724.63 472.32 Q726.81 474.7 730.63 474.7 L730.63 474.7 Q736.51 474.7 737.89 469.89 L737.89 469.89 L741.12 469.89 Q740.14 473.67 737.44 475.63 Q734.75 477.59 730.58 477.59 M735.71 457.62 Q733.67 455.54 730.34 455.54 Q727.01 455.54 724.9 457.57 Q722.79 459.61 722.35 463.13 L722.35 463.13 L737.74 463.13 Q737.74 459.7 735.71 457.62 M749.89 464.6 L749.89 477 L746.51 477 L746.51 453.28 L749.45 453.28 L749.94 457.4 Q751.12 455.15 753.3 453.9 Q755.48 452.65 758.07 452.65 L758.07 452.65 Q767.29 452.65 767.29 462.5 L767.29 462.5 L767.29 477 L763.9 477 L763.9 463.23 Q763.9 455.73 757.49 455.73 L757.49 455.73 Q753.91 455.73 751.9 458.13 Q749.89 460.54 749.89 464.6 L749.89 464.6 M779.49 456.13 L779.49 477 L776.15 477 L776.15 456.13 L771.4 456.13 L771.4 453.28 L776.15 453.28 L776.15 445.79 L779.49 445.79 L779.49 453.28 L784.24 453.28 L784.24 456.13 L779.49 456.13 M792.1 446.03 Q791.34 446.77 790.32 446.77 Q789.29 446.77 788.55 446.03 Q787.82 445.3 787.82 444.27 Q787.82 443.24 788.55 442.48 Q789.29 441.72 790.32 441.72 Q791.34 441.72 792.1 442.48 Q792.86 443.24 792.86 444.27 Q792.86 445.3 792.1 446.03 M792.03 477 L788.65 477 L788.65 453.28 L792.03 453.28 L792.03 477 M797.42 465.14 L797.42 465.14 Q797.42 459.7 800.83 456.18 Q804.23 452.65 809.47 452.65 Q814.72 452.65 818.12 456.18 Q821.53 459.7 821.53 465.14 L821.53 465.14 Q821.53 470.53 818.12 474.06 Q814.72 477.59 809.47 477.59 Q804.23 477.59 800.83 474.06 Q797.42 470.53 797.42 465.14 M800.85 465.09 L800.85 465.09 Q800.85 469.31 803.25 471.93 Q805.65 474.55 809.47 474.55 L809.47 474.55 Q813.25 474.55 815.67 471.9 Q818.1 469.26 818.1 465.09 L818.1 465.09 Q818.1 460.98 815.67 458.33 Q813.25 455.69 809.47 455.69 L809.47 455.69 Q805.65 455.69 803.25 458.33 Q800.85 460.98 800.85 465.09 M830.3 464.6 L830.3 477 L826.92 477 L826.92 453.28 L829.86 453.28 L830.35 457.4 Q831.52 455.15 833.71 453.9 Q835.89 452.65 838.48 452.65 L838.48 452.65 Q847.69 452.65 847.69 462.5 L847.69 462.5 L847.69 477 L844.31 477 L844.31 463.23 Q844.31 455.73 837.89 455.73 L837.89 455.73 Q834.32 455.73 832.31 458.13 Q830.3 460.54 830.3 464.6 L830.3 464.6 M859.53 476.66 Q858.62 477.54 857.35 477.54 Q856.07 477.54 855.17 476.66 Q854.26 475.77 854.26 474.55 L854.26 474.55 Q854.26 473.28 855.19 472.37 Q856.12 471.46 857.35 471.46 Q858.57 471.46 859.5 472.37 Q860.43 473.28 860.43 474.55 L860.43 474.55 Q860.43 475.77 859.53 476.66" fill="#FFFFFF"/>
<path d="M399.74 542.35 L399.74 544 L389.01 544 L389.01 526.1 L399.71 526.1 L399.71 527.75 L390.81 527.75 L390.81 534.2 L398.89 534.2 L398.89 535.83 L390.81 535.83 L390.81 542.35 L399.74 542.35 M404.81 525.77 L404.81 544 L403.09 544 L403.09 525.77 L404.81 525.77 M410.25 528.2 Q409.86 528.58 409.34 528.58 Q408.81 528.58 408.44 528.2 Q408.06 527.83 408.06 527.3 Q408.06 526.77 408.44 526.39 Q408.81 526 409.34 526 Q409.86 526 410.25 526.39 Q410.64 526.77 410.64 527.3 Q410.64 527.83 410.25 528.2 M410.21 544 L408.49 544 L408.49 531.9 L410.21 531.9 L410.21 544 M417.29 544.3 L417.29 544.3 Q415.39 544.3 414.29 543.33 Q413.19 542.35 413.19 540.73 L413.19 540.73 Q413.19 539.08 414.39 538.06 Q415.59 537.05 417.71 536.88 L417.71 536.88 L421.71 536.55 L421.71 536.15 Q421.71 533.02 418.51 533.02 L418.51 533.02 Q416.94 533.02 416.05 533.7 Q415.16 534.38 415.16 535.6 L415.16 535.6 L413.59 535.6 Q413.59 533.77 414.95 532.67 Q416.31 531.58 418.56 531.58 L418.56 531.58 Q420.76 531.58 422.09 532.73 Q423.41 533.88 423.41 536.17 L423.41 536.17 L423.41 544 L421.96 544 L421.74 541.88 Q421.16 543.02 419.99 543.66 Q418.81 544.3 417.29 544.3 M417.69 542.9 L417.69 542.9 Q419.56 542.9 420.64 541.7 Q421.71 540.5 421.71 538.5 L421.71 538.5 L421.71 537.85 L418.14 538.13 Q414.94 538.4 414.94 540.67 L414.94 540.67 Q414.94 541.75 415.68 542.33 Q416.41 542.9 417.69 542.9 M425.84 540.6 L425.84 540.6 L427.49 540.6 Q427.49 541.65 428.23 542.26 Q428.96 542.88 430.24 542.88 L430.24 542.88 Q431.64 542.88 432.43 542.31 Q433.21 541.75 433.21 540.77 L433.21 540.77 Q433.21 540 432.77 539.55 Q432.34 539.1 431.29 538.85 L431.29 538.85 L429.21 538.33 Q426.09 537.55 426.09 535.05 L426.09 535.05 Q426.09 533.48 427.29 532.52 Q428.49 531.58 430.46 531.58 L430.46 531.58 Q432.39 531.58 433.54 532.56 Q434.69 533.55 434.74 535.23 L434.74 535.23 L433.06 535.23 Q433.01 534.17 432.32 533.59 Q431.64 533 430.41 533 L430.41 533 Q429.14 533 428.45 533.52 Q427.76 534.05 427.76 535.02 L427.76 535.02 Q427.76 536.45 429.74 536.92 L429.74 536.92 L431.81 537.45 Q433.39 537.85 434.13 538.63 Q434.86 539.4 434.86 540.7 L434.86 540.7 Q434.86 542.33 433.6 543.31 Q432.34 544.3 430.26 544.3 L430.26 544.3 Q428.21 544.3 427.02 543.3 Q425.84 542.3 425.84 540.6 M445.01 526.1 L446.81 526.1 L446.81 542.35 L455.04 542.35 L455.04 544 L445.01 544 L445.01 526.1 M459.13 528.2 Q458.74 528.58 458.21 528.58 Q457.69 528.58 457.31 528.2 Q456.94 527.83 456.94 527.3 Q456.94 526.77 457.31 526.39 Q457.69 526 458.21 526 Q458.74 526 459.13 526.39 Q459.51 526.77 459.51 527.3 Q459.51 527.83 459.13 528.2 M459.09 544 L457.36 544 L457.36 531.9 L459.09 531.9 L459.09 544 M466.16 544.3 L466.16 544.3 Q464.26 544.3 463.16 543.33 Q462.06 542.35 462.06 540.73 L462.06 540.73 Q462.06 539.08 463.26 538.06 Q464.46 537.05 466.59 536.88 L466.59 536.88 L470.59 536.55 L470.59 536.15 Q470.59 533.02 467.39 533.02 L467.39 533.02 Q465.81 533.02 464.93 533.7 Q464.04 534.38 464.04 535.6 L464.04 535.6 L462.46 535.6 Q462.46 533.77 463.83 532.67 Q465.19 531.58 467.44 531.58 L467.44 531.58 Q469.64 531.58 470.96 532.73 Q472.29 533.88 472.29 536.17 L472.29 536.17 L472.29 544 L470.84 544 L470.61 541.88 Q470.04 543.02 468.86 543.66 Q467.69 544.3 466.16 544.3 M466.56 542.9 L466.56 542.9 Q468.44 542.9 469.51 541.7 Q470.59 540.5 470.59 538.5 L470.59 538.5 L470.59 537.85 L467.01 538.13 Q463.81 538.4 463.81 540.67 L463.81 540.67 Q463.81 541.75 464.55 542.33 Q465.29 542.9 466.56 542.9 M474.71 540.6 L474.71 540.6 L476.36 540.6 Q476.36 541.65 477.1 542.26 Q477.84 542.88 479.11 542.88 L479.11 542.88 Q480.51 542.88 481.3 542.31 Q482.09 541.75 482.09 540.77 L482.09 540.77 Q482.09 540 481.65 539.55 Q481.21 539.1 480.16 538.85 L480.16 538.85 L478.09 538.33 Q474.96 537.55 474.96 535.05 L474.96 535.05 Q474.96 533.48 476.16 532.52 Q477.36 531.58 479.34 531.58 L479.34 531.58 Q481.26 531.58 482.41 532.56 Q483.56 533.55 483.61 535.23 L483.61 535.23 L481.94 535.23 Q481.89 534.17 481.2 533.59 Q480.51 533 479.29 533 L479.29 533 Q478.01 533 477.33 533.52 Q476.64 534.05 476.64 535.02 L476.64 535.02 Q476.64 536.45 478.61 536.92 L478.61 536.92 L480.69 537.45 Q482.26 537.85 483 538.63 Q483.74 539.4 483.74 540.7 L483.74 540.7 Q483.74 542.33 482.48 543.31 Q481.21 544.3 479.14 544.3 L479.14 544.3 Q477.09 544.3 475.9 543.3 Q474.71 542.3 474.71 540.6 M488.35 528.2 Q487.96 528.58 487.44 528.58 Q486.91 528.58 486.54 528.2 Q486.16 527.83 486.16 527.3 Q486.16 526.77 486.54 526.39 Q486.91 526 487.44 526 Q487.96 526 488.35 526.39 Q488.74 526.77 488.74 527.3 Q488.74 527.83 488.35 528.2 M488.31 544 L486.59 544 L486.59 531.9 L488.31 531.9 L488.31 544 M496.66 544.3 L496.66 544.3 Q494.06 544.3 492.56 542.52 Q491.06 540.75 491.06 537.98 L491.06 537.98 Q491.06 535.15 492.59 533.36 Q494.11 531.58 496.74 531.58 L496.74 531.58 Q499.91 531.58 501.19 534.2 L501.19 534.2 L501.19 525.77 L502.91 525.77 L502.91 544 L501.41 544 L501.24 541.52 Q500.61 542.9 499.41 543.6 Q498.21 544.3 496.66 544.3 M496.96 542.73 L496.96 542.73 Q498.91 542.73 500.04 541.4 Q501.16 540.08 501.16 537.92 L501.16 537.92 Q501.16 535.8 500.04 534.46 Q498.91 533.13 496.96 533.13 L496.96 533.13 Q495.04 533.13 493.93 534.46 Q492.81 535.8 492.81 537.92 L492.81 537.92 Q492.81 540.08 493.93 541.4 Q495.04 542.73 496.96 542.73 M511.59 544.3 L511.59 544.3 Q508.94 544.3 507.3 542.55 Q505.66 540.8 505.66 537.95 L505.66 537.95 Q505.66 535.13 507.28 533.35 Q508.89 531.58 511.46 531.58 L511.46 531.58 Q513.91 531.58 515.44 533.16 Q516.96 534.75 516.96 537.33 L516.96 537.33 L516.96 538.17 L507.34 538.17 Q507.44 540.4 508.55 541.61 Q509.66 542.83 511.61 542.83 L511.61 542.83 Q514.61 542.83 515.31 540.38 L515.31 540.38 L516.96 540.38 Q516.46 542.3 515.09 543.3 Q513.71 544.3 511.59 544.3 M514.2 534.11 Q513.16 533.05 511.46 533.05 Q509.76 533.05 508.69 534.09 Q507.61 535.13 507.39 536.92 L507.39 536.92 L515.24 536.92 Q515.24 535.17 514.2 534.11 M518.69 540.6 L518.69 540.6 L520.34 540.6 Q520.34 541.65 521.08 542.26 Q521.81 542.88 523.09 542.88 L523.09 542.88 Q524.49 542.88 525.28 542.31 Q526.06 541.75 526.06 540.77 L526.06 540.77 Q526.06 540 525.63 539.55 Q525.19 539.1 524.14 538.85 L524.14 538.85 L522.06 538.33 Q518.94 537.55 518.94 535.05 L518.94 535.05 Q518.94 533.48 520.14 532.52 Q521.34 531.58 523.31 531.58 L523.31 531.58 Q525.24 531.58 526.39 532.56 Q527.54 533.55 527.59 535.23 L527.59 535.23 L525.91 535.23 Q525.86 534.17 525.18 533.59 Q524.49 533 523.26 533 L523.26 533 Q521.99 533 521.3 533.52 Q520.61 534.05 520.61 535.02 L520.61 535.02 Q520.61 536.45 522.59 536.92 L522.59 536.92 L524.66 537.45 Q526.24 537.85 526.98 538.63 Q527.71 539.4 527.71 540.7 L527.71 540.7 Q527.71 542.33 526.45 543.31 Q525.19 544.3 523.11 544.3 L523.11 544.3 Q521.06 544.3 519.88 543.3 Q518.69 542.3 518.69 540.6 M551.34 526.1 L544.31 544 L542.61 544 L549.59 526.1 L551.34 526.1 M576.49 534.5 L576.49 536.13 L569.16 536.13 L569.16 544 L567.36 544 L567.36 526.1 L577.91 526.1 L577.91 527.75 L569.16 527.75 L569.16 534.5 L576.49 534.5 M588.31 538.33 L588.31 531.9 L590.04 531.9 L590.04 544 L588.54 544 L588.31 541.95 Q587.81 543 586.65 543.65 Q585.49 544.3 584.06 544.3 L584.06 544.3 Q581.96 544.3 580.81 542.98 Q579.66 541.65 579.66 539.4 L579.66 539.4 L579.66 531.88 L581.41 531.88 L581.41 538.85 Q581.41 542.75 584.61 542.75 L584.61 542.75 Q586.36 542.75 587.34 541.61 Q588.31 540.48 588.31 538.33 L588.31 538.33 M595.44 525.77 L595.44 544 L593.71 544 L593.71 525.77 L595.44 525.77 M600.91 525.77 L600.91 544 L599.19 544 L599.19 525.77 L600.91 525.77 M611.64 538.2 L604.39 538.2 L604.39 536.65 L611.64 536.65 L611.64 538.2 M613.96 540.6 L613.96 540.6 L615.61 540.6 Q615.61 541.65 616.35 542.26 Q617.09 542.88 618.36 542.88 L618.36 542.88 Q619.76 542.88 620.55 542.31 Q621.34 541.75 621.34 540.77 L621.34 540.77 Q621.34 540 620.9 539.55 Q620.46 539.1 619.41 538.85 L619.41 538.85 L617.34 538.33 Q614.21 537.55 614.21 535.05 L614.21 535.05 Q614.21 533.48 615.41 532.52 Q616.61 531.58 618.59 531.58 L618.59 531.58 Q620.51 531.58 621.66 532.56 Q622.81 533.55 622.86 535.23 L622.86 535.23 L621.19 535.23 Q621.14 534.17 620.45 533.59 Q619.76 533 618.54 533 L618.54 533 Q617.26 533 616.58 533.52 Q615.89 534.05 615.89 535.02 L615.89 535.02 Q615.89 536.45 617.86 536.92 L617.86 536.92 L619.94 537.45 Q621.51 537.85 622.25 538.63 Q622.99 539.4 622.99 540.7 L622.99 540.7 Q622.99 542.33 621.73 543.31 Q620.46 544.3 618.39 544.3 L618.39 544.3 Q616.34 544.3 615.15 543.3 Q613.96 542.3 613.96 540.6 M628.61 533.35 L628.61 544 L626.91 544 L626.91 533.35 L624.49 533.35 L624.49 531.9 L626.91 531.9 L626.91 528.08 L628.61 528.08 L628.61 531.9 L631.04 531.9 L631.04 533.35 L628.61 533.35 M636.56 544.3 L636.56 544.3 Q634.66 544.3 633.56 543.33 Q632.46 542.35 632.46 540.73 L632.46 540.73 Q632.46 539.08 633.66 538.06 Q634.86 537.05 636.99 536.88 L636.99 536.88 L640.99 536.55 L640.99 536.15 Q640.99 533.02 637.79 533.02 L637.79 533.02 Q636.21 533.02 635.33 533.7 Q634.44 534.38 634.44 535.6 L634.44 535.6 L632.86 535.6 Q632.86 533.77 634.23 532.67 Q635.59 531.58 637.84 531.58 L637.84 531.58 Q640.04 531.58 641.36 532.73 Q642.69 533.88 642.69 536.17 L642.69 536.17 L642.69 544 L641.24 544 L641.01 541.88 Q640.44 543.02 639.26 543.66 Q638.09 544.3 636.56 544.3 M636.96 542.9 L636.96 542.9 Q638.84 542.9 639.91 541.7 Q640.99 540.5 640.99 538.5 L640.99 538.5 L640.99 537.85 L637.41 538.13 Q634.21 538.4 634.21 540.67 L634.21 540.67 Q634.21 541.75 634.95 542.33 Q635.69 542.9 636.96 542.9 M646.88 542.56 Q645.29 540.83 645.29 537.98 Q645.29 535.13 646.9 533.35 Q648.51 531.58 651.14 531.58 L651.14 531.58 Q653.24 531.58 654.68 532.7 Q656.11 533.83 656.46 535.7 L656.46 535.7 L654.74 535.7 Q654.41 534.48 653.44 533.79 Q652.46 533.1 651.16 533.1 L651.16 533.1 Q649.31 533.1 648.15 534.42 Q646.99 535.75 646.99 537.95 L646.99 537.95 Q646.99 540.1 648.1 541.42 Q649.21 542.75 651.04 542.75 L651.04 542.75 Q652.39 542.75 653.4 542.06 Q654.41 541.38 654.76 540.2 L654.76 540.2 L656.51 540.2 Q656.09 542.05 654.59 543.17 Q653.09 544.3 651.04 544.3 L651.04 544.3 Q648.46 544.3 646.88 542.56 M660.94 540.38 L660.94 544 L659.21 544 L659.21 525.77 L660.94 525.77 L660.94 538.15 L666.94 531.9 L669.11 531.9 L664.46 536.73 L669.14 544 L667.14 544 L663.29 537.95 L660.94 540.38 M692.29 544 L690.24 544 L688.64 542.15 Q686.46 544.33 682.94 544.33 L682.94 544.33 Q680.11 544.33 678.41 543 Q676.71 541.67 676.71 539.45 L676.71 539.45 Q676.71 537.75 677.79 536.41 Q678.86 535.08 681.29 533.75 L681.29 533.75 Q680.01 532.27 679.51 531.35 Q679.01 530.42 679.01 529.45 L679.01 529.45 Q679.01 527.83 680.14 526.81 Q681.26 525.8 683.06 525.8 L683.06 525.8 Q684.79 525.8 685.86 526.76 Q686.94 527.73 686.94 529.3 L686.94 529.3 Q686.94 530.65 686.18 531.75 Q685.41 532.85 683.64 534.05 L683.64 534.05 L688.51 539.67 Q689.29 538.05 689.29 535.83 L689.29 535.83 L690.96 535.83 Q690.96 538.8 689.61 540.92 L689.61 540.92 L692.29 544 M682.71 532.98 L682.71 532.98 L682.74 533 Q685.29 531.4 685.29 529.35 L685.29 529.35 Q685.29 528.38 684.69 527.81 Q684.09 527.25 683.04 527.25 L683.04 527.25 Q681.96 527.25 681.33 527.84 Q680.69 528.42 680.69 529.45 L680.69 529.45 Q680.69 530.13 681.1 530.86 Q681.51 531.6 682.71 532.98 M678.49 539.35 L678.49 539.35 Q678.49 540.98 679.7 541.9 Q680.91 542.83 683.04 542.83 L683.04 542.83 Q686.01 542.83 687.64 541 L687.64 541 L682.19 534.77 Q680.16 535.9 679.33 536.94 Q678.49 537.98 678.49 539.35 M702.46 539.25 L700.71 544 L698.89 544 L705.46 526.1 L707.69 526.1 L714.34 544 L712.46 544 L710.71 539.25 L702.46 539.25 M706.34 528.63 L706.34 528.63 L703.01 537.67 L710.14 537.67 L706.79 528.63 Q706.76 528.52 706.7 528.38 Q706.64 528.23 706.6 528.1 Q706.56 527.98 706.56 527.9 L706.56 527.9 Q706.51 528.17 706.34 528.63 M716.84 526.1 L718.64 526.1 L718.64 544 L716.84 544 L716.84 526.1 M728.51 540.6 L728.51 540.6 L730.16 540.6 Q730.16 541.65 730.9 542.26 Q731.64 542.88 732.91 542.88 L732.91 542.88 Q734.31 542.88 735.1 542.31 Q735.89 541.75 735.89 540.77 L735.89 540.77 Q735.89 540 735.45 539.55 Q735.01 539.1 733.96 538.85 L733.96 538.85 L731.89 538.33 Q728.76 537.55 728.76 535.05 L728.76 535.05 Q728.76 533.48 729.96 532.52 Q731.16 531.58 733.14 531.58 L733.14 531.58 Q735.06 531.58 736.21 532.56 Q737.36 533.55 737.41 535.23 L737.41 535.23 L735.74 535.23 Q735.69 534.17 735 533.59 Q734.31 533 733.09 533 L733.09 533 Q731.81 533 731.13 533.52 Q730.44 534.05 730.44 535.02 L730.44 535.02 Q730.44 536.45 732.41 536.92 L732.41 536.92 L734.49 537.45 Q736.06 537.85 736.8 538.63 Q737.54 539.4 737.54 540.7 L737.54 540.7 Q737.54 542.33 736.27 543.31 Q735.01 544.3 732.94 544.3 L732.94 544.3 Q730.89 544.3 729.7 543.3 Q728.51 542.3 728.51 540.6 M738.91 549.27 L738.91 549.27 L738.91 547.85 L740.24 547.85 Q740.74 547.85 741.04 547.81 Q741.34 547.77 741.74 547.61 Q742.14 547.45 742.42 547.09 Q742.71 546.73 742.94 546.15 L742.94 546.15 L743.46 544.73 L738.56 531.9 L740.39 531.9 L744.29 542.45 L748.11 531.9 L749.89 531.9 L744.34 546.77 Q743.36 549.45 740.74 549.45 L740.74 549.45 Q739.69 549.45 738.91 549.27 M750.81 540.6 L750.81 540.6 L752.46 540.6 Q752.46 541.65 753.2 542.26 Q753.94 542.88 755.21 542.88 L755.21 542.88 Q756.61 542.88 757.4 542.31 Q758.19 541.75 758.19 540.77 L758.19 540.77 Q758.19 540 757.75 539.55 Q757.31 539.1 756.26 538.85 L756.26 538.85 L754.19 538.33 Q751.06 537.55 751.06 535.05 L751.06 535.05 Q751.06 533.48 752.26 532.52 Q753.46 531.58 755.44 531.58 L755.44 531.58 Q757.36 531.58 758.51 532.56 Q759.66 533.55 759.71 535.23 L759.71 535.23 L758.04 535.23 Q757.99 534.17 757.3 533.59 Q756.61 533 755.39 533 L755.39 533 Q754.11 533 753.42 533.52 Q752.74 534.05 752.74 535.02 L752.74 535.02 Q752.74 536.45 754.71 536.92 L754.71 536.92 L756.79 537.45 Q758.36 537.85 759.1 538.63 Q759.84 539.4 759.84 540.7 L759.84 540.7 Q759.84 542.33 758.57 543.31 Q757.31 544.3 755.24 544.3 L755.24 544.3 Q753.19 544.3 752 543.3 Q750.81 542.3 750.81 540.6 M765.46 533.35 L765.46 544 L763.76 544 L763.76 533.35 L761.34 533.35 L761.34 531.9 L763.76 531.9 L763.76 528.08 L765.46 528.08 L765.46 531.9 L767.89 531.9 L767.89 533.35 L765.46 533.35 M775.09 544.3 L775.09 544.3 Q772.44 544.3 770.8 542.55 Q769.16 540.8 769.16 537.95 L769.16 537.95 Q769.16 535.13 770.77 533.35 Q772.39 531.58 774.96 531.58 L774.96 531.58 Q777.41 531.58 778.94 533.16 Q780.46 534.75 780.46 537.33 L780.46 537.33 L780.46 538.17 L770.84 538.17 Q770.94 540.4 772.05 541.61 Q773.16 542.83 775.11 542.83 L775.11 542.83 Q778.11 542.83 778.81 540.38 L778.81 540.38 L780.46 540.38 Q779.96 542.3 778.59 543.3 Q777.21 544.3 775.09 544.3 M777.7 534.11 Q776.66 533.05 774.96 533.05 Q773.26 533.05 772.19 534.09 Q771.11 535.13 770.89 536.92 L770.89 536.92 L778.74 536.92 Q778.74 535.17 777.7 534.11 M784.94 536.5 L784.94 544 L783.21 544 L783.21 531.9 L784.71 531.9 L784.91 533.63 Q785.36 532.67 786.33 532.13 Q787.29 531.58 788.56 531.58 L788.56 531.58 Q789.96 531.58 791 532.26 Q792.04 532.95 792.46 534.15 L792.46 534.15 Q792.89 532.95 793.94 532.26 Q794.99 531.58 796.44 531.58 L796.44 531.58 Q798.41 531.58 799.6 532.79 Q800.79 534 800.79 536.08 L800.79 536.08 L800.79 544 L799.11 544 L799.11 536.42 Q799.11 534.88 798.31 534 Q797.51 533.13 796.11 533.13 L796.11 533.13 Q794.64 533.13 793.76 534.1 Q792.89 535.08 792.89 536.52 L792.89 536.52 L792.89 544 L791.19 544 L791.19 536.4 Q791.19 534.88 790.38 534.01 Q789.56 533.15 788.19 533.15 L788.19 533.15 Q786.71 533.15 785.83 534.11 Q784.94 535.08 784.94 536.5 L784.94 536.5 M803.09 540.6 L803.09 540.6 L804.74 540.6 Q804.74 541.65 805.48 542.26 Q806.21 542.88 807.49 542.88 L807.49 542.88 Q808.89 542.88 809.67 542.31 Q810.46 541.75 810.46 540.77 L810.46 540.77 Q810.46 540 810.02 539.55 Q809.59 539.1 808.54 538.85 L808.54 538.85 L806.46 538.33 Q803.34 537.55 803.34 535.05 L803.34 535.05 Q803.34 533.48 804.54 532.52 Q805.74 531.58 807.71 531.58 L807.71 531.58 Q809.64 531.58 810.79 532.56 Q811.94 533.55 811.99 535.23 L811.99 535.23 L810.31 535.23 Q810.26 534.17 809.58 533.59 Q808.89 533 807.66 533 L807.66 533 Q806.39 533 805.7 533.52 Q805.01 534.05 805.01 535.02 L805.01 535.02 Q805.01 536.45 806.99 536.92 L806.99 536.92 L809.06 537.45 Q810.64 537.85 811.38 538.63 Q812.11 539.4 812.11 540.7 L812.11 540.7 Q812.11 542.33 810.85 543.31 Q809.59 544.3 807.51 544.3 L807.51 544.3 Q805.46 544.3 804.27 543.3 Q803.09 542.3 803.09 540.6" fill="#E6E0ED"/>
<path d="M524.27 566.96 L525.79 566.96 L525.79 580.61 L532.7 580.61 L532.7 582 L524.27 582 L524.27 566.96 M536.13 568.73 Q535.8 569.04 535.36 569.04 Q534.92 569.04 534.61 568.73 Q534.29 568.41 534.29 567.97 Q534.29 567.53 534.61 567.21 Q534.92 566.88 535.36 566.88 Q535.8 566.88 536.13 567.21 Q536.45 567.53 536.45 567.97 Q536.45 568.41 536.13 568.73 M536.1 582 L534.65 582 L534.65 571.84 L536.1 571.84 L536.1 582 M540.57 575.7 L540.57 582 L539.12 582 L539.12 571.84 L540.38 571.84 L540.55 573.28 Q540.93 572.49 541.74 572.02 Q542.54 571.56 543.61 571.56 L543.61 571.56 Q544.79 571.56 545.66 572.14 Q546.53 572.72 546.89 573.73 L546.89 573.73 Q547.25 572.72 548.13 572.14 Q549.01 571.56 550.23 571.56 L550.23 571.56 Q551.89 571.56 552.89 572.58 Q553.88 573.6 553.88 575.34 L553.88 575.34 L553.88 582 L552.48 582 L552.48 575.64 Q552.48 574.34 551.8 573.6 Q551.13 572.87 549.96 572.87 L549.96 572.87 Q548.72 572.87 547.98 573.68 Q547.25 574.5 547.25 575.72 L547.25 575.72 L547.25 582 L545.82 582 L545.82 575.62 Q545.82 574.34 545.14 573.61 Q544.45 572.89 543.3 572.89 L543.3 572.89 Q542.06 572.89 541.32 573.69 Q540.57 574.5 540.57 575.7 L540.57 575.7 M559.72 582.25 L559.72 582.25 Q558.13 582.25 557.2 581.43 Q556.28 580.61 556.28 579.25 L556.28 579.25 Q556.28 577.86 557.29 577.01 Q558.29 576.16 560.08 576.01 L560.08 576.01 L563.44 575.74 L563.44 575.41 Q563.44 572.78 560.75 572.78 L560.75 572.78 Q559.43 572.78 558.68 573.35 Q557.94 573.91 557.94 574.94 L557.94 574.94 L556.61 574.94 Q556.61 573.41 557.76 572.49 Q558.9 571.56 560.79 571.56 L560.79 571.56 Q562.64 571.56 563.75 572.53 Q564.87 573.5 564.87 575.43 L564.87 575.43 L564.87 582 L563.65 582 L563.46 580.22 Q562.98 581.18 561.99 581.72 Q561 582.25 559.72 582.25 M560.06 581.08 L560.06 581.08 Q561.63 581.08 562.54 580.07 Q563.44 579.06 563.44 577.38 L563.44 577.38 L563.44 576.83 L560.44 577.07 Q557.75 577.3 557.75 579.21 L557.75 579.21 Q557.75 580.11 558.37 580.59 Q558.99 581.08 560.06 581.08 M566.9 579.14 L566.9 579.14 L568.29 579.14 Q568.29 580.03 568.91 580.54 Q569.53 581.05 570.6 581.05 L570.6 581.05 Q571.78 581.05 572.44 580.58 Q573.1 580.11 573.1 579.29 L573.1 579.29 Q573.1 578.64 572.73 578.26 Q572.36 577.88 571.48 577.67 L571.48 577.67 L569.74 577.23 Q567.11 576.58 567.11 574.48 L567.11 574.48 Q567.11 573.16 568.12 572.36 Q569.13 571.56 570.79 571.56 L570.79 571.56 Q572.41 571.56 573.37 572.39 Q574.34 573.22 574.38 574.63 L574.38 574.63 L572.97 574.63 Q572.93 573.75 572.35 573.25 Q571.78 572.76 570.75 572.76 L570.75 572.76 Q569.68 572.76 569.1 573.2 Q568.52 573.64 568.52 574.46 L568.52 574.46 Q568.52 575.66 570.18 576.06 L570.18 576.06 L571.92 576.5 Q573.25 576.83 573.87 577.49 Q574.48 578.14 574.48 579.23 L574.48 579.23 Q574.48 580.59 573.42 581.42 Q572.36 582.25 570.62 582.25 L570.62 582.25 Q568.9 582.25 567.9 581.41 Q566.9 580.57 566.9 579.14 M576.02 579.14 L576.02 579.14 L577.4 579.14 Q577.4 580.03 578.02 580.54 Q578.64 581.05 579.71 581.05 L579.71 581.05 Q580.89 581.05 581.55 580.58 Q582.21 580.11 582.21 579.29 L582.21 579.29 Q582.21 578.64 581.85 578.26 Q581.48 577.88 580.6 577.67 L580.6 577.67 L578.85 577.23 Q576.23 576.58 576.23 574.48 L576.23 574.48 Q576.23 573.16 577.24 572.36 Q578.24 571.56 579.9 571.56 L579.9 571.56 Q581.52 571.56 582.49 572.39 Q583.45 573.22 583.49 574.63 L583.49 574.63 L582.09 574.63 Q582.04 573.75 581.47 573.25 Q580.89 572.76 579.86 572.76 L579.86 572.76 Q578.79 572.76 578.21 573.2 Q577.63 573.64 577.63 574.46 L577.63 574.46 Q577.63 575.66 579.29 576.06 L579.29 576.06 L581.04 576.5 Q582.36 576.83 582.98 577.49 Q583.6 578.14 583.6 579.23 L583.6 579.23 Q583.6 580.59 582.54 581.42 Q581.48 582.25 579.74 582.25 L579.74 582.25 Q578.01 582.25 577.02 581.41 Q576.02 580.57 576.02 579.14 M585.28 576.92 L585.28 576.92 Q585.28 574.59 586.74 573.08 Q588.2 571.56 590.45 571.56 Q592.69 571.56 594.15 573.08 Q595.61 574.59 595.61 576.92 L595.61 576.92 Q595.61 579.23 594.15 580.74 Q592.69 582.25 590.45 582.25 Q588.2 582.25 586.74 580.74 Q585.28 579.23 585.28 576.92 M586.75 576.9 L586.75 576.9 Q586.75 578.7 587.78 579.83 Q588.81 580.95 590.45 580.95 L590.45 580.95 Q592.06 580.95 593.1 579.82 Q594.14 578.68 594.14 576.9 L594.14 576.9 Q594.14 575.13 593.1 574 Q592.06 572.87 590.45 572.87 L590.45 572.87 Q588.81 572.87 587.78 574 Q586.75 575.13 586.75 576.9 M599.43 566.69 L599.43 582 L597.98 582 L597.98 566.69 L599.43 566.69 M605.08 581.29 L605.08 581.29 Q605.08 582.25 604.42 583.01 Q603.76 583.76 602.77 583.91 L602.77 583.91 L602.77 583.13 Q603.34 583.05 603.71 582.68 Q604.07 582.32 604.07 581.87 L604.07 581.87 Q603.86 582.02 603.53 582.02 L603.53 582.02 Q603.07 582.02 602.75 581.72 Q602.44 581.41 602.44 580.89 L602.44 580.89 Q602.44 580.34 602.78 579.98 Q603.13 579.63 603.68 579.63 L603.68 579.63 Q604.26 579.63 604.67 580.08 Q605.08 580.53 605.08 581.29 M620.29 582.23 L620.29 582.23 Q617.14 582.23 615.18 580.09 Q613.23 577.95 613.23 574.48 Q613.23 571.02 615.2 568.86 Q617.18 566.71 620.37 566.71 L620.37 566.71 Q622.81 566.71 624.55 568.07 Q626.29 569.42 626.75 571.65 L626.75 571.65 L625.14 571.65 Q624.67 570.03 623.37 569.1 Q622.07 568.16 620.31 568.16 L620.31 568.16 Q617.83 568.16 616.32 569.89 Q614.8 571.63 614.8 574.48 L614.8 574.48 Q614.8 577.32 616.32 579.05 Q617.83 580.78 620.31 580.78 L620.31 580.78 Q622.09 580.78 623.41 579.89 Q624.74 579 625.22 577.49 L625.22 577.49 L626.84 577.49 Q626.31 579.61 624.51 580.92 Q622.7 582.23 620.29 582.23 M628.12 586.43 L628.12 586.43 L628.12 585.23 L629.23 585.23 Q629.65 585.23 629.9 585.2 Q630.16 585.17 630.49 585.03 Q630.83 584.9 631.07 584.59 Q631.31 584.29 631.5 583.81 L631.5 583.81 L631.94 582.61 L627.82 571.84 L629.36 571.84 L632.63 580.7 L635.85 571.84 L637.34 571.84 L632.68 584.33 Q631.86 586.58 629.65 586.58 L629.65 586.58 Q628.77 586.58 628.12 586.43 M640.49 586.43 L639.04 586.43 L639.04 571.84 L640.3 571.84 L640.45 573.89 Q640.97 572.74 641.98 572.15 Q642.99 571.56 644.29 571.56 L644.29 571.56 Q646.45 571.56 647.72 573.04 Q648.99 574.52 648.99 576.88 L648.99 576.88 Q648.99 579.25 647.74 580.75 Q646.49 582.25 644.29 582.25 L644.29 582.25 Q641.56 582.25 640.49 580.05 L640.49 580.05 L640.49 586.43 M640.51 576.92 L640.51 576.92 Q640.51 578.7 641.45 579.83 Q642.4 580.95 644.04 580.95 L644.04 580.95 Q645.65 580.95 646.59 579.83 Q647.52 578.7 647.52 576.92 L647.52 576.92 Q647.52 575.11 646.59 574 Q645.65 572.89 644.04 572.89 L644.04 572.89 Q642.4 572.89 641.45 574 Q640.51 575.11 640.51 576.92 M656.62 571.71 L656.62 571.71 L656.62 573.01 L655.82 573.01 Q654.41 573.01 653.58 573.88 Q652.75 574.75 652.75 576.2 L652.75 576.2 L652.75 582 L651.3 582 L651.3 571.84 L652.67 571.84 L652.77 573.41 Q653.07 572.57 653.84 572.09 Q654.62 571.61 655.67 571.61 L655.67 571.61 Q656.17 571.61 656.62 571.71 M665.69 577.23 L665.69 571.84 L667.14 571.84 L667.14 582 L665.88 582 L665.69 580.28 Q665.27 581.16 664.29 581.71 Q663.31 582.25 662.12 582.25 L662.12 582.25 Q660.35 582.25 659.39 581.14 Q658.42 580.03 658.42 578.14 L658.42 578.14 L658.42 571.82 L659.89 571.82 L659.89 577.67 Q659.89 580.95 662.58 580.95 L662.58 580.95 Q664.05 580.95 664.87 579.99 Q665.69 579.04 665.69 577.23 L665.69 577.23 M669.09 579.14 L669.09 579.14 L670.48 579.14 Q670.48 580.03 671.1 580.54 Q671.71 581.05 672.79 581.05 L672.79 581.05 Q673.96 581.05 674.62 580.58 Q675.28 580.11 675.28 579.29 L675.28 579.29 Q675.28 578.64 674.92 578.26 Q674.55 577.88 673.67 577.67 L673.67 577.67 L671.92 577.23 Q669.3 576.58 669.3 574.48 L669.3 574.48 Q669.3 573.16 670.31 572.36 Q671.32 571.56 672.97 571.56 L672.97 571.56 Q674.59 571.56 675.56 572.39 Q676.52 573.22 676.57 574.63 L676.57 574.63 L675.16 574.63 Q675.12 573.75 674.54 573.25 Q673.96 572.76 672.93 572.76 L672.93 572.76 Q671.86 572.76 671.28 573.2 Q670.71 573.64 670.71 574.46 L670.71 574.46 Q670.71 575.66 672.37 576.06 L672.37 576.06 L674.11 576.5 Q675.43 576.83 676.05 577.49 Q676.67 578.14 676.67 579.23 L676.67 579.23 Q676.67 580.59 675.61 581.42 Q674.55 582.25 672.81 582.25 L672.81 582.25 Q671.08 582.25 670.09 581.41 Q669.09 580.57 669.09 579.14" fill="#C5BED0"/>
<image href="quark-logo.webp" x="411" y="48" width="57" height="57"/></svg>